<svg width="16" height="16" viewBox="0 0 16 16" fill="none" xmlns="http://www.w3.org/2000/svg">
<path d="M8.35343 1.64645C8.23928 1.5323 8.08367 1.48488 7.93508 1.50419C7.84679 1.51567 7.76098 1.5507 7.68781 1.60929C7.67171 1.62216 7.65643 1.636 7.64204 1.65073L4.64633 4.64645C4.45106 4.84171 4.45106 5.15829 4.64633 5.35355C4.84159 5.54882 5.15817 5.54882 5.35343 5.35355L7.49979 3.2072L7.49979 9.99996C7.49979 10.2761 7.72365 10.5 7.99979 10.5C8.27593 10.5 8.49979 10.2761 8.49979 9.99996L8.49979 3.20701L10.6463 5.35355C10.8416 5.54881 11.1582 5.54881 11.3534 5.35355C11.5487 5.15829 11.5487 4.84171 11.3534 4.64644L8.35343 1.64645Z" fill="#00829B"/>
<path d="M2 9.99996C2 9.72381 1.77614 9.49996 1.5 9.49996C1.22386 9.49996 1 9.72381 1 9.99996V13.1666C1 13.6529 1.19315 14.1192 1.53697 14.463C1.88079 14.8068 2.3471 15 2.83333 15H13.1667C13.6529 15 14.1192 14.8068 14.463 14.463C14.8068 14.1192 15 13.6529 15 13.1666V9.99996C15 9.72381 14.7761 9.49996 14.5 9.49996C14.2239 9.49996 14 9.72381 14 9.99996V13.1666C14 13.3876 13.9122 13.5996 13.7559 13.7559C13.5996 13.9122 13.3877 14 13.1667 14H2.83333C2.61232 14 2.40036 13.9122 2.24408 13.7559C2.0878 13.5996 2 13.3876 2 13.1666V9.99996Z" fill="#00829B"/>
</svg>
