<svg xmlns="http://www.w3.org/2000/svg" width="20" height="20" viewBox="0 0 20 20" fill="none">
    <path fill-rule="evenodd" clip-rule="evenodd" d="M17.2 9.99999C17.2 13.9764 13.9765 17.2 10 17.2C6.0236 17.2 2.80005 13.9764 2.80005 9.99999C2.80005 6.02354 6.0236 2.79999 10 2.79999C13.9765 2.79999 17.2 6.02354 17.2 9.99999ZM11 6.59999C11 7.15227 10.5523 7.59999 10 7.59999C9.44776 7.59999 9.00005 7.15227 9.00005 6.59999C9.00005 6.0477 9.44776 5.59999 10 5.59999C10.5523 5.59999 11 6.0477 11 6.59999ZM10.8 13.6C10.8 14.0418 10.4419 14.4 10 14.4C9.55822 14.4 9.20005 14.0418 9.20005 13.6L9.20005 9.19999C9.20005 8.75816 9.55822 8.39999 10 8.39999C10.4419 8.39999 10.8 8.75816 10.8 9.19999V13.6Z" fill="white"/>
</svg>