<svg xmlns="http://www.w3.org/2000/svg" width="20" height="20" viewBox="0 0 20 20" fill="none">
    <path fill-rule="evenodd" clip-rule="evenodd" d="M17.2 9.99999C17.2 13.9764 13.9765 17.2 10 17.2C6.0236 17.2 2.80005 13.9764 2.80005 9.99999C2.80005 6.02354 6.0236 2.79999 10 2.79999C13.9765 2.79999 17.2 6.02354 17.2 9.99999ZM13.8146 8.11216C14.0975 7.77273 14.0516 7.26828 13.7122 6.98543C13.3728 6.70258 12.8683 6.74844 12.5855 7.08786L9.14629 11.2149L7.36573 9.43432C7.05331 9.1219 6.54678 9.1219 6.23436 9.43432C5.92194 9.74674 5.92194 10.2533 6.23436 10.5657L8.63436 12.9657C8.7933 13.1246 9.01176 13.2094 9.2363 13.1992C9.46084 13.189 9.67073 13.0848 9.81463 12.9122L13.8146 8.11216Z" fill="white"/>
</svg>