<svg xmlns="http://www.w3.org/2000/svg" width="20" height="20" viewBox="0 0 20 20" fill="none">
    <path fill-rule="evenodd" clip-rule="evenodd" d="M11.0449 3.41275C10.5805 2.59573 9.41952 2.59573 8.95513 3.41275L2.16344 15.3617C1.69905 16.1787 2.27954 17.2 3.20832 17.2H16.7917C17.7205 17.2 18.3009 16.1787 17.8366 15.3617L11.0449 3.41275ZM10.9325 6.41163C10.9391 6.18625 10.7582 5.99999 10.5327 5.99999H9.46161C9.236 5.99999 9.05502 6.18647 9.06179 6.41198L9.24768 12.612C9.25416 12.8281 9.43125 13 9.6475 13H10.3523C10.5686 13 10.7458 12.8279 10.7521 12.6116L10.9325 6.41163ZM10 16C10.5523 16 11 15.5523 11 15C11 14.4477 10.5523 14 10 14C9.44771 14 9 14.4477 9 15C9 15.5523 9.44771 16 10 16Z" fill="white"/>
</svg>